<svg xmlns="http://www.w3.org/2000/svg" viewBox="0 0 520 122" role="img" aria-labelledby="title">
<title id="title">SolVida Cycling</title>
<g fill="none" stroke="#0d4d6d" stroke-width="2.3" stroke-linecap="round" stroke-linejoin="round">
  <path d="M14 42c21-2 27-18 44-22 12-3 16 6 26 1 9-5 10-14 20-14 11 0 15 19 25 23 14 5 27-9 41-7 14 2 21 12 33 12" opacity=".82"/>
  <circle cx="139" cy="56" r="12"/><circle cx="177" cy="56" r="12"/><path d="M139 56l15-23 10 23h-25l11-14h22m-18-9l-7-10m4 0h12m-1 7 9-10m-4 0h13m-1 36h14"/>
</g>
<text x="213" y="61" font-family="Poppins,Arial,sans-serif" font-size="49" font-weight="300" fill="#0d4d6d" letter-spacing="1">SolVida</text>
<text x="374" y="84" font-family="Segoe Script,Brush Script MT,cursive" font-size="47" fill="#17698d">Cycling</text>
<path d="M214 95h108" stroke="#b9d4e2" stroke-width="2"/><path d="M486 95h20" stroke="#b9d4e2" stroke-width="2"/>
</svg>
